<?xml version="1.0" encoding="UTF-8"?>
<svg version="1.1" xmlns="http://www.w3.org/2000/svg" width="256" height="256">
<path d="M0 0 C21.12 0 42.24 0 64 0 C64 5.28 64 10.56 64 16 C69.28 16 74.56 16 80 16 C80 31.84 80 47.68 80 64 C74.72 64 69.44 64 64 64 C64 74.56 64 85.12 64 96 C58.72 96 53.44 96 48 96 C48 106.56 48 117.12 48 128 C42.72 128 37.44 128 32 128 C32 133.28 32 138.56 32 144 C26.72 144 21.44 144 16 144 C16 149.28 16 154.56 16 160 C21.28 160 26.56 160 32 160 C32 170.56 32 181.12 32 192 C26.72 192 21.44 192 16 192 C16 197.28 16 202.56 16 208 C10.72 208 5.44 208 0 208 C0 213.28 0 218.56 0 224 C-10.56 224 -21.12 224 -32 224 C-32 218.72 -32 213.44 -32 208 C-42.56 208 -53.12 208 -64 208 C-64 213.28 -64 218.56 -64 224 C-79.84 224 -95.68 224 -112 224 C-112 218.72 -112 213.44 -112 208 C-117.28 208 -122.56 208 -128 208 C-128 202.72 -128 197.44 -128 192 C-133.28 192 -138.56 192 -144 192 C-144 165.6 -144 139.2 -144 112 C-138.72 112 -133.44 112 -128 112 C-128 101.44 -128 90.88 -128 80 C-122.72 80 -117.44 80 -112 80 C-112 74.72 -112 69.44 -112 64 C-106.72 64 -101.44 64 -96 64 C-96 58.72 -96 53.44 -96 48 C-90.72 48 -85.44 48 -80 48 C-80 42.72 -80 37.44 -80 32 C-69.44 32 -58.88 32 -48 32 C-48 26.72 -48 21.44 -48 16 C-32.16 16 -16.32 16 0 16 C0 10.72 0 5.44 0 0 Z " fill="#5068A8" transform="translate(160,16)"/>
<path d="M0 0 C26.4 0 52.8 0 80 0 C80 15.84 80 31.68 80 48 C74.72 48 69.44 48 64 48 C64 42.72 64 37.44 64 32 C58.72 32 53.44 32 48 32 C48 42.56 48 53.12 48 64 C37.44 64 26.88 64 16 64 C16 69.28 16 74.56 16 80 C10.72 80 5.44 80 0 80 C0 85.28 0 90.56 0 96 C-5.28 96 -10.56 96 -16 96 C-16 106.56 -16 117.12 -16 128 C-21.28 128 -26.56 128 -32 128 C-32 133.28 -32 138.56 -32 144 C-37.28 144 -42.56 144 -48 144 C-48 133.44 -48 122.88 -48 112 C-53.28 112 -58.56 112 -64 112 C-64 101.44 -64 90.88 -64 80 C-53.44 80 -42.88 80 -32 80 C-32 69.44 -32 58.88 -32 48 C-21.44 48 -10.88 48 0 48 C0 32.16 0 16.32 0 0 Z " fill="#90A8E8" transform="translate(112,32)"/>
<path d="M0 0 C10.56 0 21.12 0 32 0 C32 10.56 32 21.12 32 32 C21.44 32 10.88 32 0 32 C0 42.56 0 53.12 0 64 C-10.56 64 -21.12 64 -32 64 C-32 69.28 -32 74.56 -32 80 C-37.28 80 -42.56 80 -48 80 C-48 69.44 -48 58.88 -48 48 C-42.72 48 -37.44 48 -32 48 C-32 42.72 -32 37.44 -32 32 C-26.72 32 -21.44 32 -16 32 C-16 26.72 -16 21.44 -16 16 C-10.72 16 -5.44 16 0 16 C0 10.72 0 5.44 0 0 Z " fill="#5068A8" transform="translate(80,48)"/>
<path d="M0 0 C10.56 0 21.12 0 32 0 C32 15.84 32 31.68 32 48 C26.72 48 21.44 48 16 48 C16 42.72 16 37.44 16 32 C5.44 32 -5.12 32 -16 32 C-16 26.72 -16 21.44 -16 16 C-10.72 16 -5.44 16 0 16 C0 10.72 0 5.44 0 0 Z " fill="#90A8E8" transform="translate(160,32)"/>
<path d="M0 0 C5.28 0 10.56 0 16 0 C16 10.56 16 21.12 16 32 C10.72 32 5.44 32 0 32 C0 37.28 0 42.56 0 48 C-5.28 48 -10.56 48 -16 48 C-16 42.72 -16 37.44 -16 32 C-21.28 32 -26.56 32 -32 32 C-32 26.72 -32 21.44 -32 16 C-21.44 16 -10.88 16 0 16 C0 10.72 0 5.44 0 0 Z " fill="#282828" transform="translate(176,176)"/>
<path d="M0 0 C5.28 0 10.56 0 16 0 C16 26.4 16 52.8 16 80 C10.72 80 5.44 80 0 80 C0 53.6 0 27.2 0 0 Z " fill="#282828" transform="translate(16,128)"/>
<path d="M0 0 C5.28 0 10.56 0 16 0 C16 5.28 16 10.56 16 16 C21.28 16 26.56 16 32 16 C32 21.28 32 26.56 32 32 C16.16 32 0.32 32 -16 32 C-16 26.72 -16 21.44 -16 16 C-10.72 16 -5.44 16 0 16 C0 10.72 0 5.44 0 0 Z " fill="#90A8E8" transform="translate(144,160)"/>
<path d="M0 0 C21.12 0 42.24 0 64 0 C64 5.28 64 10.56 64 16 C42.88 16 21.76 16 0 16 C0 10.72 0 5.44 0 0 Z " fill="#282828" transform="translate(160,16)"/>
<path d="M0 0 C15.84 0 31.68 0 48 0 C48 5.28 48 10.56 48 16 C32.16 16 16.32 16 0 16 C0 10.72 0 5.44 0 0 Z " fill="#282828" transform="translate(48,224)"/>
<path d="M0 0 C10.56 0 21.12 0 32 0 C32 10.56 32 21.12 32 32 C26.72 32 21.44 32 16 32 C16 26.72 16 21.44 16 16 C10.72 16 5.44 16 0 16 C0 10.72 0 5.44 0 0 Z " fill="#282828" transform="translate(80,48)"/>
<path d="M0 0 C5.28 0 10.56 0 16 0 C16 15.84 16 31.68 16 48 C10.72 48 5.44 48 0 48 C0 32.16 0 16.32 0 0 Z " fill="#282828" transform="translate(224,32)"/>
<path d="M0 0 C15.84 0 31.68 0 48 0 C48 5.28 48 10.56 48 16 C32.16 16 16.32 16 0 16 C0 10.72 0 5.44 0 0 Z " fill="#282828" transform="translate(112,32)"/>
<path d="M0 0 C10.56 0 21.12 0 32 0 C32 5.28 32 10.56 32 16 C21.44 16 10.88 16 0 16 C0 10.72 0 5.44 0 0 Z " fill="#282828" transform="translate(128,224)"/>
<path d="M0 0 C10.56 0 21.12 0 32 0 C32 5.28 32 10.56 32 16 C21.44 16 10.88 16 0 16 C0 10.72 0 5.44 0 0 Z " fill="#282828" transform="translate(96,208)"/>
<path d="M0 0 C10.56 0 21.12 0 32 0 C32 5.28 32 10.56 32 16 C21.44 16 10.88 16 0 16 C0 10.72 0 5.44 0 0 Z " fill="#282828" transform="translate(128,144)"/>
<path d="M0 0 C5.28 0 10.56 0 16 0 C16 10.56 16 21.12 16 32 C10.72 32 5.44 32 0 32 C0 21.44 0 10.88 0 0 Z " fill="#282828" transform="translate(192,112)"/>
<path d="M0 0 C5.28 0 10.56 0 16 0 C16 10.56 16 21.12 16 32 C10.72 32 5.44 32 0 32 C0 21.44 0 10.88 0 0 Z " fill="#282828" transform="translate(32,96)"/>
<path d="M0 0 C5.28 0 10.56 0 16 0 C16 10.56 16 21.12 16 32 C10.72 32 5.44 32 0 32 C0 21.44 0 10.88 0 0 Z " fill="#282828" transform="translate(208,80)"/>
<path d="M0 0 C10.56 0 21.12 0 32 0 C32 5.28 32 10.56 32 16 C21.44 16 10.88 16 0 16 C0 10.72 0 5.44 0 0 Z " fill="#90A8E8" transform="translate(112,48)"/>
<path d="M0 0 C5.28 0 10.56 0 16 0 C16 5.28 16 10.56 16 16 C10.72 16 5.44 16 0 16 C0 10.72 0 5.44 0 0 Z " fill="#282828" transform="translate(32,208)"/>
<path d="M0 0 C5.28 0 10.56 0 16 0 C16 5.28 16 10.56 16 16 C10.72 16 5.44 16 0 16 C0 10.72 0 5.44 0 0 Z " fill="#282828" transform="translate(160,160)"/>
<path d="M0 0 C5.28 0 10.56 0 16 0 C16 5.28 16 10.56 16 16 C10.72 16 5.44 16 0 16 C0 10.72 0 5.44 0 0 Z " fill="#5068A8" transform="translate(128,160)"/>
<path d="M0 0 C5.28 0 10.56 0 16 0 C16 5.28 16 10.56 16 16 C10.72 16 5.44 16 0 16 C0 10.72 0 5.44 0 0 Z " fill="#282828" transform="translate(112,160)"/>
<path d="M0 0 C5.28 0 10.56 0 16 0 C16 5.28 16 10.56 16 16 C10.72 16 5.44 16 0 16 C0 10.72 0 5.44 0 0 Z " fill="#282828" transform="translate(176,144)"/>
<path d="M0 0 C5.28 0 10.56 0 16 0 C16 5.28 16 10.56 16 16 C10.72 16 5.44 16 0 16 C0 10.72 0 5.44 0 0 Z " fill="#282828" transform="translate(48,144)"/>
<path d="M0 0 C5.28 0 10.56 0 16 0 C16 5.28 16 10.56 16 16 C10.72 16 5.44 16 0 16 C0 10.72 0 5.44 0 0 Z " fill="#282828" transform="translate(128,96)"/>
<path d="M0 0 C5.28 0 10.56 0 16 0 C16 5.28 16 10.56 16 16 C10.72 16 5.44 16 0 16 C0 10.72 0 5.44 0 0 Z " fill="#282828" transform="translate(64,96)"/>
<path d="M0 0 C5.28 0 10.56 0 16 0 C16 5.28 16 10.56 16 16 C10.72 16 5.44 16 0 16 C0 10.72 0 5.44 0 0 Z " fill="#5068A8" transform="translate(48,96)"/>
<path d="M0 0 C5.28 0 10.56 0 16 0 C16 5.28 16 10.56 16 16 C10.72 16 5.44 16 0 16 C0 10.72 0 5.44 0 0 Z " fill="#282828" transform="translate(48,80)"/>
<path d="M0 0 C5.28 0 10.56 0 16 0 C16 5.28 16 10.56 16 16 C10.72 16 5.44 16 0 16 C0 10.72 0 5.44 0 0 Z " fill="#282828" transform="translate(160,64)"/>
<path d="M0 0 C5.28 0 10.56 0 16 0 C16 5.28 16 10.56 16 16 C10.72 16 5.44 16 0 16 C0 10.72 0 5.44 0 0 Z " fill="#F8F8F8" transform="translate(128,64)"/>
<path d="M0 0 C5.28 0 10.56 0 16 0 C16 5.28 16 10.56 16 16 C10.72 16 5.44 16 0 16 C0 10.72 0 5.44 0 0 Z " fill="#282828" transform="translate(64,64)"/>
<path d="M0 0 C5.28 0 10.56 0 16 0 C16 5.28 16 10.56 16 16 C10.72 16 5.44 16 0 16 C0 10.72 0 5.44 0 0 Z " fill="#282828" transform="translate(192,48)"/>
<path d="M0 0 C5.28 0 10.56 0 16 0 C16 5.28 16 10.56 16 16 C10.72 16 5.44 16 0 16 C0 10.72 0 5.44 0 0 Z " fill="#F8F8F8" transform="translate(144,48)"/>
<path d="M0 0 C5.28 0 10.56 0 16 0 C16 5.28 16 10.56 16 16 C10.72 16 5.44 16 0 16 C0 10.72 0 5.44 0 0 Z " fill="#5068A8" transform="translate(112,48)"/>
</svg>
